<?xml version="1.0" encoding="utf-8" ?>
<svg baseProfile="full" height="600" version="1.1" width="600" xmlns="http://www.w3.org/2000/svg" xmlns:ev="http://www.w3.org/2001/xml-events" xmlns:xlink="http://www.w3.org/1999/xlink"><defs /><circle cx="300.0" cy="300.0" fill="rgb(140,171,255)" id="bracelet" r="200" /><circle cx="300.0" cy="100.0" fill="rgb(0,255,0)" id="0.0" r="15" stroke="green" stroke-width="2" /><line stroke="rgb(10%,10%,16%)" stroke-width=".2" x1="300.0" x2="300.0" y1="300.0" y2="100.0" /><circle cx="410.4435694439668" cy="133.26002888186747" fill="rgb(0,255,0)" id="111.731" r="15" stroke="green" stroke-width="2" /><line stroke="rgb(10%,10%,16%)" stroke-width=".2" x1="300.0" x2="410.4435694439668" y1="300.0" y2="133.26002888186747" /><circle cx="463.2702694385106" cy="184.48887881473854" fill="rgb(0,255,0)" id="182.404" r="15" stroke="green" stroke-width="2" /><line stroke="rgb(10%,10%,16%)" stroke-width=".2" x1="300.0" x2="463.2702694385106" y1="300.0" y2="184.48887881473854" /><circle cx="499.32967791260717" cy="316.360913888175" fill="rgb(0,255,0)" id="315.641" r="15" stroke="green" stroke-width="2" /><line stroke="rgb(10%,10%,16%)" stroke-width=".2" x1="300.0" x2="499.32967791260717" y1="300.0" y2="316.360913888175" /><circle cx="479.9203982793017" cy="387.3421449417029" fill="rgb(0,255,0)" id="386.314" r="15" stroke="green" stroke-width="2" /><line stroke="rgb(10%,10%,16%)" stroke-width=".2" x1="300.0" x2="479.9203982793017" y1="300.0" y2="387.3421449417029" /><circle cx="401.7677188119985" cy="472.17238863360757" fill="rgb(0,255,0)" id="498.045" r="15" stroke="green" stroke-width="2" /><line stroke="rgb(10%,10%,16%)" stroke-width=".2" x1="300.0" x2="401.7677188119985" y1="300.0" y2="472.17238863360757" /><circle cx="310.23293332459315" cy="499.7380461393733" fill="rgb(0,255,0)" id="590.224" r="15" stroke="green" stroke-width="2" /><line stroke="rgb(10%,10%,16%)" stroke-width=".2" x1="300.0" x2="310.23293332459315" y1="300.0" y2="499.7380461393733" /><circle cx="289.76706667540685" cy="499.7380461393733" fill="rgb(0,255,0)" id="609.776" r="15" stroke="green" stroke-width="2" /><line stroke="rgb(10%,10%,16%)" stroke-width=".2" x1="300.0" x2="289.76706667540685" y1="300.0" y2="499.7380461393733" /><circle cx="198.23228118800154" cy="472.1723886336076" fill="rgb(0,255,0)" id="701.955" r="15" stroke="green" stroke-width="2" /><line stroke="rgb(10%,10%,16%)" stroke-width=".2" x1="300.0" x2="198.23228118800154" y1="300.0" y2="472.1723886336076" /><circle cx="120.07960172069824" cy="387.3421449417029" fill="rgb(0,255,0)" id="813.686" r="15" stroke="green" stroke-width="2" /><line stroke="rgb(10%,10%,16%)" stroke-width=".2" x1="300.0" x2="120.07960172069824" y1="300.0" y2="387.3421449417029" /><circle cx="100.6703220873928" cy="316.360913888175" fill="rgb(0,255,0)" id="884.359" r="15" stroke="green" stroke-width="2" /><line stroke="rgb(10%,10%,16%)" stroke-width=".2" x1="300.0" x2="100.6703220873928" y1="300.0" y2="316.360913888175" /><circle cx="136.7297305614893" cy="184.48887881473865" fill="rgb(0,255,0)" id="1017.596" r="15" stroke="green" stroke-width="2" /><line stroke="rgb(10%,10%,16%)" stroke-width=".2" x1="300.0" x2="136.7297305614893" y1="300.0" y2="184.48887881473865" /><circle cx="189.55643055603304" cy="133.26002888186758" fill="rgb(0,255,0)" id="1088.269" r="15" stroke="green" stroke-width="2" /><line stroke="rgb(10%,10%,16%)" stroke-width=".2" x1="300.0" x2="189.55643055603304" y1="300.0" y2="133.26002888186758" /></svg>